<svg width="1520" height="610" xmlns="http://www.w3.org/2000/svg">
 <!-- Created with Method Draw - http://github.com/duopixel/Method-Draw/ -->

 <g>
  <title>background</title>
  <rect fill="#ffffff" id="canvas_background" height="612" width="1522" y="-1" x="-1"/>
  <g display="none" overflow="visible" y="0" x="0" height="100%" width="100%" id="canvasGrid">
   <rect fill="url(#gridpattern)" stroke-width="0" y="0" x="0" height="100%" width="100%"/>
  </g>
 </g>
 <g>
  <title>Layer 1</title>
  <text stroke="#000" transform="matrix(7.963518820719307,0,0,6.894742327244421,57.95784906198554,-238.75108681484542) " font-style="normal" font-weight="normal" xml:space="preserve" text-anchor="start" font-family="'Rounded Mplus 1c ExtraBold'" font-size="76" id="svg_6" y="101.84421" x="7.45939" fill="#03ed54">F</text>
  <text font-style="normal" font-weight="normal" stroke="#000" transform="matrix(7.610377110742075,0,0,6.833752288139322,-4263.186965049283,-1170.2781222465226) " xml:space="preserve" text-anchor="start" font-family="'Rounded Mplus 1c ExtraBold'" font-size="76" id="svg_9" y="239.59381" x="700.5314" stroke-width="NaN" fill="#03ed54">D</text>
  <g stroke="null" id="svg_21">
   <path stroke-width="33" stroke="null" id="svg_13" fill="#D43D3D" d="m668.2417,472.76188c22.52367,-0.01365 42.41014,-13.07356 49.03604,-32.211l31.40281,-90.64516c13.93633,-40.26204 21.02735,-82.14754 21.02735,-124.26999c0,-31.19791 -28.45187,-56.486 -63.55158,-56.486l-15.8868,0c-35.09971,0 -63.55048,25.28809 -63.55048,56.486l0,210.21928c0,20.38258 18.59091,36.90687 41.52266,36.90687z"/>
   <path stroke-width="33" stroke="null" id="svg_14" fill="#5F9548" d="m616.78897,84.12498c-7.56713,18.13108 -10.6157,37.50331 -8.93619,56.78252l10.92176,0c17.54876,0 31.77579,12.6459 31.77579,28.2432l0,14.12174l-119.15757,0l0,-14.12174c0,-15.5973 14.22813,-28.2432 31.77579,-28.2432c-0.81069,-26.26061 8.92851,-51.91455 27.47005,-72.3728l26.15036,15.59028z"/>
   <path stroke-width="33" stroke="null" id="svg_15" fill="#D43D3D" d="m505.758,472.76188c-22.52476,-0.01365 -42.41101,-13.07356 -49.03604,-32.211l-31.40292,-90.64516c-13.93655,-40.26204 -21.02703,-82.14754 -21.02703,-124.26999c0,-31.19791 28.4511,-56.486 63.55026,-56.486l15.88789,0c35.09971,0 63.55048,25.28809 63.55048,56.486l0,210.21928c0,20.38258 -18.59091,36.90687 -41.52266,36.90687z"/>
   <path stroke-width="33" stroke="null" id="svg_16" fill="#E94F4F" d="m499.61808,211.51399l0,25.7571c0,34.55893 2.97068,69.06619 8.88243,103.22242l13.69169,95.46097c3.57623,20.66925 23.58776,35.92791 47.11628,35.92499l29.3942,0c23.52852,0.00293 43.53566,-15.25574 47.11189,-35.92499l19.65391,-95.46097c5.92272,-34.15623 8.90218,-68.66349 8.91315,-103.22242l0,-25.7571c0,-23.39551 -21.3411,-42.36426 -47.66259,-42.36426l-79.43838,0c-26.32149,0 -47.66259,18.96875 -47.66259,42.36426z"/>
   <path stroke-width="33" stroke="null" id="svg_17" fill="#E04646" d="m518.96921,413.45211l3.22409,22.51698c3.57623,20.66828 23.58666,35.92791 47.11518,35.92401l29.3942,0c23.52852,0.0039 43.53566,-15.25574 47.11189,-35.92401l19.65391,-95.46194c5.91943,-34.13868 8.89779,-68.62448 8.91315,-103.16294c-24.23828,74.35489 -79.93861,137.47031 -155.41242,176.1079z"/>
   <path stroke-width="33" stroke="null" id="svg_18" fill="#F26666" d="m523.44937,232.69709l15.88789,0l0,15.00417l-15.88789,0l0,-15.00417z"/>
   <path stroke-width="33" stroke="null" id="svg_19" fill="#F26666" d="m532.98342,344.46296l-4.44835,-27.65066c-3.13414,-18.02392 -4.8334,-36.22433 -5.08571,-54.45886l15.88789,-0.15503c0.22489,17.60075 1.84626,35.16639 4.85204,52.56628l4.47248,27.71891l-15.67837,1.97936z"/>
   <path stroke-width="33" stroke="null" id="svg_20" fill="#77AD50" d="m618.77564,77.35965c0,7.7985 -7.11406,14.12145 -15.88789,14.12145c-8.77383,0 -15.88789,-6.32295 -15.88789,-14.12145c0,-7.7986 7.11406,-14.12155 15.88789,-14.12155c8.77383,0 15.88789,6.32295 15.88789,14.12155z"/>
  </g>
  <g stroke="null" id="svg_30">
   <path stroke="null" id="svg_22" fill="#D43D3D" d="m1014.79898,470.7619c23.50991,-0.01361 44.26712,-13.04161 51.18313,-32.13233l32.77781,-90.42381c14.54655,-40.16376 21.94803,-81.94698 21.94803,-123.96655c0,-31.12175 -29.69765,-56.34808 -66.33423,-56.34808l-16.58241,0c-36.63658,0 -66.33308,25.22633 -66.33308,56.34808l0,209.70597c0,20.33281 19.4049,36.81672 43.34076,36.81672z"/>
   <path stroke="null" id="svg_23" fill="#5F9548" d="m961.09337,83.074c-7.89847,18.08681 -11.08054,37.41173 -9.32747,56.64388l11.39993,0c18.31716,0 33.16714,12.615 33.16714,28.17421l0,14.08728l-124.37497,0l0,-14.08728c0,-15.55921 14.85109,-28.17421 33.16709,-28.17421c-0.84615,-26.19652 9.31946,-51.78779 28.67285,-72.1961l27.29542,15.55223z"/>
   <path stroke="null" id="svg_24" fill="#D43D3D" d="m845.20077,470.7619c-23.51102,-0.01361 -44.26801,-13.04161 -51.18313,-32.13233l-32.77791,-90.42381c-14.54676,-40.16376 -21.94771,-81.94698 -21.94771,-123.96655c0,-31.12175 29.69686,-56.34808 66.33287,-56.34808l16.58357,0c36.63658,0 66.33313,25.22633 66.33313,56.34808l0,209.70597c0,20.33281 -19.40495,36.81672 -43.34081,36.81672z"/>
   <path stroke="null" id="svg_25" fill="#E94F4F" d="m838.79202,210.15193l0,25.6942c0,34.47454 3.10075,68.89754 9.27137,102.97036l14.29116,95.2279c3.73284,20.61875 24.62062,35.84016 49.17935,35.83725l30.68122,0c24.55873,0.00291 45.44193,-15.2185 49.17477,-35.83725l20.51445,-95.2279c6.18206,-34.07282 9.29197,-68.49582 9.3034,-102.97036l0,-25.6942c0,-23.33837 -22.27553,-42.2608 -49.7495,-42.2608l-82.91665,0c-27.47403,0 -49.74956,18.92243 -49.74956,42.2608z"/>
   <path stroke="null" id="svg_26" fill="#E04646" d="m858.99045,411.59698l3.36526,22.46199c3.73284,20.61783 24.61946,35.8402 49.17819,35.83629l30.68122,0c24.55873,0.00391 45.44193,-15.21846 49.17477,-35.83629l20.51445,-95.22886c6.17863,-34.05529 9.28738,-68.45689 9.3034,-102.91103c-25.29954,74.17334 -83.43877,137.13465 -162.21728,175.67791z"/>
   <path stroke="null" id="svg_27" fill="#F26666" d="m863.66677,231.28331l16.58357,0l0,14.96754l-16.58357,0l0,-14.96754z"/>
   <path stroke="null" id="svg_28" fill="#F26666" d="m873.61827,342.77626l-4.64309,-27.58312c-3.2714,-17.97993 -5.04506,-36.13588 -5.30842,-54.3259l16.58357,-0.15467c0.23475,17.5578 1.9271,35.08056 5.0645,52.43794l4.66832,27.65123l-16.36489,1.97451z"/>
   <path stroke="null" id="svg_29" fill="#77AD50" d="m963.16699,76.3252c0,7.77943 -7.42555,14.08697 -16.58357,14.08697c-9.15797,0 -16.58352,-6.30754 -16.58352,-14.08697c0,-7.77958 7.42555,-14.08709 16.58352,-14.08709c9.15803,0 16.58357,6.3075 16.58357,14.08709z"/>
  </g>
 </g>
</svg>